<?xml version="1.0" encoding="UTF-8" standalone="no"?>
<!DOCTYPE svg PUBLIC "-//W3C//DTD SVG 1.1//EN" "http://www.w3.org/Graphics/SVG/1.1/DTD/svg11.dtd">
<!-- Created with Vectornator (http://vectornator.io/) -->
<svg height="100%" stroke-miterlimit="10" style="fill-rule:nonzero;clip-rule:evenodd;stroke-linecap:round;stroke-linejoin:round;" version="1.1" viewBox="0 0 205.695 205.694" width="100%" xml:space="preserve" xmlns="http://www.w3.org/2000/svg" xmlns:xlink="http://www.w3.org/1999/xlink">
<defs/>
<clipPath id="ArtboardFrame">
<rect height="205.694" width="205.695" x="0" y="0"/>
</clipPath>
<g clip-path="url(#ArtboardFrame)" id="Untitled">
<path d="M183.957 113.298C162.217 125.03 160.119 103.687 160.119 103.687C142.15 101.607 128.768 81.525 128.768 81.525C104.51 94.065 118.022 129.447 128.484 143.03C129.986 144.968 131.156 147.06 132.126 149.213L157.554 149.213L157.554 174.428L181.599 174.428L181.599 205.696L16.167 205.696L16.167 174.428L40.212 174.428L40.212 149.213L49.486 149.213C49.43 149.142 49.365 149.082 49.309 149.012C28.308 122.626 33.725 97.683 39.704 81.215C46.907 61.419 56.636 50.564 70.833 39C91.908 21.82 130.872 19.648 130.872 19.648C132.125 12.543 152.618 0 152.618 0C150.519 2.084 149.686 13.382 149.686 13.382C151.785 9.614 158.469 5.842 158.469 5.842C154.704 14.623 158.469 33.443 158.469 33.443C169.345 44.331 181.462 81.959 181.462 81.959L186.078 88.641C191.918 97.02 189.755 110.177 183.957 113.298ZM118.3 16.435C121.284 16.435 123.696 14.02 123.696 11.03C123.696 8.04 121.284 5.636 118.3 5.636C115.321 5.636 112.9 8.039 112.9 11.03C112.9 14.021 115.321 16.435 118.3 16.435ZM94.899 20.641C97.884 20.641 100.298 18.221 100.298 15.236C100.298 12.254 97.884 9.825 94.899 9.825C91.92 9.825 89.5 12.248 89.5 15.236C89.5 18.22 91.92 20.641 94.899 20.641ZM75.701 29.037C78.678 29.037 81.101 26.616 81.101 23.632C81.101 20.647 78.678 18.226 75.701 18.226C72.717 18.226 70.302 20.641 70.302 23.632C70.301 26.607 72.716 29.037 75.701 29.037ZM57.706 39.827C60.691 39.827 63.105 37.418 63.105 34.436C63.105 31.445 60.69 29.031 57.706 29.031C54.722 29.031 52.307 31.433 52.307 34.436C52.306 37.412 54.727 39.827 57.706 39.827ZM43.907 54.825C46.889 54.825 49.303 52.417 49.303 49.426C49.303 46.439 46.889 44.024 43.907 44.024C40.922 44.024 38.508 46.439 38.508 49.426C38.507 52.417 40.928 54.825 43.907 54.825ZM33.708 72.833C36.69 72.833 39.107 70.412 39.107 67.427C39.107 64.436 36.69 62.016 33.708 62.016C30.729 62.016 28.309 64.431 28.309 67.427C28.309 70.412 30.723 72.833 33.708 72.833ZM26.505 94.428C29.487 94.428 31.902 92.008 31.902 89.017C31.902 86.029 29.487 83.615 26.505 83.615C23.526 83.615 21.106 86.029 21.106 89.017C21.106 92.007 23.527 94.428 26.505 94.428ZM22.903 117.825C25.888 117.825 28.302 115.426 28.302 112.423C28.302 109.444 25.888 107.032 22.903 107.032C19.924 107.032 17.504 109.432 17.504 112.423C17.503 115.414 19.924 117.825 22.903 117.825ZM27.108 128.63C24.126 128.63 21.712 131.042 21.712 134.021C21.712 137.012 24.127 139.436 27.108 139.436C30.093 139.436 32.508 137.036 32.508 134.021C32.508 131.042 30.093 128.63 27.108 128.63Z" fill="#282c7a" fill-rule="nonzero" opacity="1" stroke="none"/>
</g>
</svg>
